<svg xmlns="http://www.w3.org/2000/svg" xmlns:xlink="http://www.w3.org/1999/xlink" version="1.1" id="Layer_1" x="0px" y="0px" viewBox="0 0 1683.78 2383.94" enable-background="new 0 0 1683.78 2383.94" xml:space="preserve">


<g>
	<polygon fill="#442F27" points="1231.23,1526.22 1196.48,1737.11 1143.11,1665.57  "/>
	<polygon fill="#70544A" points="1231.23,1526.22 1386.91,1470.16 1196.48,1737.11  "/>
	<polygon fill="#765950" points="1279.16,1417.64 1386.91,1470.16 1231.23,1526.22  "/>
	<polygon fill="#3DB4BB" points="1386.91,1470.16 1279.16,1569.57 1196.48,1737.11  "/>
</g>
<g>
	<polygon fill="#442F27" points="434.34,1526.22 469.09,1737.11 522.46,1665.57  "/>
	<polygon fill="#70544A" points="434.34,1526.22 278.66,1470.16 469.09,1737.11  "/>
	<polygon fill="#765950" points="386.41,1417.64 278.66,1470.16 434.34,1526.22  "/>
	<polygon fill="#3DB4BB" points="278.66,1470.16 386.41,1569.57 469.09,1737.11  "/>
</g>











<g>
	<polygon fill="#9191A1" points="1057.29,1739.66 913.84,1763.43 775.85,1766.86  "/>
	<polygon fill="#3C4252" points="1083.35,1677.87 1057.29,1739.66 1040.76,1681.61  "/>
	<polygon fill="#62677C" points="1162.7,1637.23 1104.84,1739.12 1083.35,1677.87  "/>
	<polygon fill="#82849B" points="1162.7,1637.23 1253.1,1516.93 1104.84,1739.12  "/>
	<polygon fill="#595B6E" points="1083.35,1677.87 1104.84,1739.12 1057.29,1739.66  "/>
	<polygon fill="#445060" points="1040.76,1681.61 1057.29,1739.66 964.55,1705.88  "/>
	<polygon fill="#515567" points="723.7,1711.19 673.42,1760.01 687.34,1705.39  "/>
	<polygon fill="#414553" points="687.34,1705.39 559.06,1747.09 603.17,1681.9  "/>
	<polygon fill="#686E82" points="687.34,1705.39 673.42,1760.01 559.06,1747.09  "/>
	<polygon fill="#424555" points="603.17,1681.9 559.06,1747.09 503.43,1591  "/>
	<polygon fill="#50556A" points="723.7,1711.19 791.65,1763.55 673.42,1760.01  "/>
	<polygon fill="#3A3436" points="775.85,1766.86 791.65,1763.55 1057.29,1739.66  "/>
	<polygon fill="#7C8093" points="775.85,1766.86 673.42,1760.01 791.65,1763.55  "/>
	<polygon fill="#82849B" points="964.55,1705.88 791.65,1763.55 841.49,1719.94  "/>
	<polygon fill="#5A5F73" points="964.55,1705.88 1057.29,1739.66 791.65,1763.55  "/>
	<polygon fill="#787C94" points="841.49,1719.94 791.65,1763.55 792.91,1717.6  "/>
	<polygon fill="#61667A" points="792.91,1717.6 791.65,1763.55 723.7,1711.19  "/>
	<polygon fill="#82849B" points="1104.84,1739.12 1029.02,1766.86 1057.29,1739.66  "/>
	<polygon fill="#595B6E" points="913.84,1763.43 1029.02,1766.86 1057.29,1739.66  "/>
</g>
<polygon id="XMLID_147_" fill="#E74890" points="1341.94,851.35 1418.13,1147.81 1329.57,1440.15 1158.73,1689.26 965.2,1730.44   839.5,1841.61 714.01,1730.44 520.48,1689.26 349.6,1440.15 261.08,1147.81 337.24,851.35 236.23,619.49 338.37,519.24   535.5,603.61 660.13,557.12 840.2,546.96 1019.08,557.12 1143.71,603.61 1340.81,519.24 1442.98,619.49 "/>
<polygon id="XMLID_144_" fill="#F8D7AA" points="839.72,1599.21 1021.22,1500.63 1062.21,1380.65 1241.15,1232.27 1074.83,859.69   840.05,789.7 "/>
<polygon id="XMLID_143_" fill="#F8D7AA" points="839.72,1433.18 1012.59,1310.05 1040.44,1185.89 958.96,857.31 840.05,789.7 "/>
<polygon id="XMLID_85_" fill="#A2D1D9" points="947.59,1162.86 1012.59,1310.05 1040.44,1185.89 "/>
<polygon id="XMLID_84_" fill="#3DB4BB" points="918.7,1050.79 1040.44,1185.89 947.59,1162.86 "/>
<polygon id="XMLID_83_" fill="#3C3C3B" points="958.96,857.31 1074.83,859.69 1025.89,929.84 "/>
<polygon id="XMLID_82_" fill="#68BDBD" points="1241.15,1232.27 1040.44,1185.89 1012.59,1310.05 "/>
<polygon id="XMLID_81_" fill="#E62D85" points="840.2,546.97 1143.69,603.61 1019.07,557.12 "/>
<polygon id="XMLID_80_" fill="#E62D85" points="1241.15,1232.27 1025.89,929.84 1074.83,859.69 "/>
<polygon id="XMLID_79_" fill="#3DB4BB" points="965.19,1730.45 1329.59,1440.16 1158.71,1689.27 "/>
<polygon id="XMLID_78_" fill="#3DB4BB" points="1329.59,1440.16 1341.94,851.36 1418.11,1147.82 "/>
<polygon id="XMLID_77_" fill="#E62D85" points="1341.36,851.36 1143.11,603.61 1341.36,719.74 "/>
<polygon id="XMLID_133_" fill="#E74890" points="1341.36,719.74 1143.69,603.61 1340.81,519.23 "/>
<polygon id="XMLID_132_" fill="#E62D85" points="1241.15,1232.27 1329.59,1440.16 1341.36,851.36 "/>
<polygon id="XMLID_75_" fill="#E62D85" points="1022.25,1501.37 1329.59,1440.16 965.19,1730.45 "/>
<polygon id="XMLID_27_" fill="#81C4BE" points="1022.25,1501.37 1241.15,1232.27 1012.59,1310.05 "/>
<polygon id="XMLID_26_" fill="#81C4BE" points="958.96,857.31 840.76,789.7 1074.83,859.69 "/>
<polygon id="XMLID_128_" fill="#3DB4BB" points="1040.44,1185.89 1025.89,929.84 1241.15,1232.27 "/>
<polygon id="XMLID_127_" fill="#68BDBD" points="839.72,1433.18 1012.59,1310.05 1022.25,1501.37 "/>
<polygon id="XMLID_126_" fill="#F1A4C4" points="1340.81,519.23 1341.36,851.36 1442.97,619.49 "/>
<polygon id="XMLID_125_" fill="#81C4BE" points="918.7,1050.79 1025.89,929.84 958.96,857.31 "/>
<polygon id="XMLID_124_" fill="#81C4BE" points="1025.89,929.84 918.7,1050.79 1040.44,1185.89 "/>
<polygon id="XMLID_25_" fill="#E74890" points="840.2,546.96 1342.76,861.86 1143.11,603.61 "/>
<polygon id="XMLID_61_" fill="#F8D7AA" points="839.48,1599.21 657.98,1500.63 616.99,1380.65 438.04,1232.27 604.37,859.69   839.14,789.7 "/>
<polygon id="XMLID_59_" fill="#F8D7AA" points="839.48,1433.18 666.61,1310.05 638.76,1185.89 720.24,857.31 839.14,789.7 "/>
<polygon id="XMLID_58_" fill="#010202" points="947.59,1162.86 840.14,1232.27 731.62,1162.86 760.5,1050.8 839.19,1035.45   918.71,1050.8 "/>
<g id="XMLID_56_">
	<polygon id="XMLID_57_" fill="#A2D1D9" points="958.97,856.64 919.35,1053.48 759.81,1053.48 719.56,856.64 839.63,788.33  "/>
</g>
<g id="XMLID_54_">
	<polygon id="XMLID_55_" fill="#A2D1D9" points="1012.57,1310.05 839.59,1433.31 666.6,1310.05 839.34,1280.66  "/>
</g>
<polygon id="XMLID_53_" fill="#A2D1D9" points="731.61,1162.86 666.61,1310.05 638.76,1185.89 "/>
<polygon id="XMLID_52_" fill="#3DB4BB" points="760.5,1050.79 638.76,1185.89 731.61,1162.86 "/>
<polygon id="XMLID_51_" fill="#3C3C3B" points="720.24,857.31 604.37,859.69 653.31,929.84 "/>
<g id="XMLID_49_">
	<polygon id="XMLID_50_" fill="#3DB4BB" points="1022.25,1501.35 840.75,1600.68 656.96,1501.35 839.71,1433.19  "/>
</g>
<polygon id="XMLID_48_" fill="#68BDBD" points="438.04,1232.27 638.76,1185.89 666.61,1310.05 "/>
<polygon id="XMLID_47_" fill="#E62D85" points="840.2,546.96 535.5,603.61 660.12,557.12 "/>
<polygon id="XMLID_46_" fill="#E62D85" points="438.04,1232.27 653.31,929.84 604.37,859.69 "/>
<polygon id="XMLID_22_" fill="#3DB4BB" points="714,1730.45 349.6,1440.16 520.48,1689.27 "/>
<polygon id="XMLID_21_" fill="#3DB4BB" points="349.6,1440.16 337.25,851.36 261.08,1147.82 "/>
<polygon id="XMLID_43_" fill="#ED87B1" points="714.01,1730.44 840.75,1600.68 839.5,1841.62 "/>
<polygon id="XMLID_20_" fill="#E62D85" points="337.84,851.36 536.08,603.61 337.84,719.74 "/>
<polygon id="XMLID_41_" fill="#E74890" points="337.84,719.74 535.5,603.61 338.38,519.23 "/>
<polygon id="XMLID_40_" fill="#E62D85" points="438.04,1232.27 349.6,1440.16 337.84,851.36 "/>
<polygon id="XMLID_39_" fill="#E62D85" points="656.95,1501.37 349.6,1440.16 714,1730.45 "/>
<polygon id="XMLID_38_" fill="#81C4BE" points="656.95,1501.37 438.04,1232.27 666.61,1310.05 "/>
<polygon id="XMLID_37_" fill="#81C4BE" points="720.24,857.31 838.43,789.7 604.37,859.69 "/>
<polygon id="XMLID_36_" fill="#3DB4BB" points="638.76,1185.89 653.31,929.84 438.04,1232.27 "/>
<g id="XMLID_34_">
	<polygon id="XMLID_35_" fill="#81C4BE" points="1012.57,1310.05 839.6,1280.63 666.6,1310.05 731.62,1162.86 840.14,1232.27    947.59,1162.86  "/>
</g>
<polygon id="XMLID_33_" fill="#68BDBD" points="839.48,1433.18 666.61,1310.05 656.95,1501.37 "/>
<polygon id="XMLID_32_" fill="#F1A4C4" points="338.38,519.23 337.84,851.36 236.22,619.49 "/>
<polygon id="XMLID_31_" fill="#81C4BE" points="760.5,1050.79 653.31,929.84 720.24,857.31 "/>
<polygon id="XMLID_30_" fill="#81C4BE" points="653.31,929.84 760.5,1050.79 638.76,1185.89 "/>
<polygon id="XMLID_29_" fill="#E74890" points="840.2,546.96 337.84,851.36 536.08,603.61 "/>
<g id="XMLID_17_">
	<polygon id="XMLID_18_" fill="#3F2716" points="947.59,1162.86 839.59,1232.27 731.62,1162.86 839.47,1144.33  "/>
</g>
<polygon id="XMLID_16_" fill="#3DB4BB" points="666.61,1310.05 1012.57,1310.05 839.34,1280.66 "/>
<polygon id="XMLID_15_" fill="#F1A4C4" points="840.75,1600.68 839.5,1841.62 965.19,1730.45 "/>
<polygon id="XMLID_14_" fill="#E62D85" points="656.95,1501.37 1022.25,1501.35 840.75,1600.68 "/>
<polygon fill="#8B8F96" points="1042.75,954.74 1105.81,964.24 1060.64,983.84 "/>
<polygon fill="#817C87" points="1025.96,927.74 1105.81,964.24 1042.75,954.74 "/>
<polygon fill="#6D727C" points="1025.96,927.74 1059.67,881.24 1105.81,964.24 "/>
<polygon fill="#80818A" points="1060.64,983.84 1105.81,964.24 1084.58,1012.96 "/>
<polygon fill="#442F27" points="1102.17,1046.51 1156.8,1024.85 1146.07,1111.18 "/>
<polygon fill="#70544A" points="1084.58,1012.96 1105.81,964.24 1156.8,1024.85 "/>
<polygon fill="#C7C2C5" points="1146.07,1111.18 1156.8,1024.85 1237.75,1224.65 "/>
<polygon fill="#70544A" points="1084.58,1012.96 1156.8,1024.85 1102.17,1046.51 "/>
<polygon fill="#8B8F96" points="1052.71,677.62 1114.37,661.33 1080.67,697.24 "/>
<polygon fill="#817C87" points="1026.59,659.49 1114.37,661.33 1052.71,677.62 "/>
<polygon fill="#6D727C" points="1026.59,659.49 838.2,548.96 1114.37,661.33 "/>
<polygon fill="#80818A" points="1080.67,697.24 1114.37,661.33 1114.2,714.47 "/>
<polygon fill="#70544A" points="1143.65,738.3 1185.21,696.75 1209.6,780.26 "/>
<polygon fill="#6F7480" points="1114.2,714.47 1114.37,661.33 1185.21,696.75 "/>
<polygon fill="#442F27" points="1209.6,780.26 1185.21,696.75 1338.77,848.06 "/>
<polygon fill="#6F737C" points="1114.2,714.47 1185.21,696.75 1143.65,738.3 "/>
<polygon fill="#8B8F96" points="626.87,677.62 565.21,661.33 598.91,697.24 "/>
<polygon fill="#817C87" points="652.99,659.49 565.21,661.33 626.87,677.62 "/>
<polygon fill="#6D727C" points="652.99,659.49 841.38,548.96 565.21,661.33 "/>
<polygon fill="#80818A" points="598.91,697.24 565.21,661.33 565.39,714.47 "/>
<polygon fill="#70544A" points="535.93,738.3 494.37,696.75 469.98,780.26 "/>
<polygon fill="#6F7480" points="565.39,714.47 565.21,661.33 494.37,696.75 "/>
<polygon fill="#442F27" points="469.98,780.26 494.37,696.75 340.82,848.06 "/>
<polygon fill="#6F737C" points="565.39,714.47 494.37,696.75 535.93,738.3 "/>
<polygon fill="#8B8F96" points="635.78,954.74 572.72,964.24 617.89,983.84 "/>
<polygon fill="#817C87" points="652.57,927.74 572.72,964.24 635.78,954.74 "/>
<polygon fill="#6D727C" points="652.57,927.74 618.86,881.24 572.72,964.24 "/>
<polygon fill="#80818A" points="617.89,983.84 572.72,964.24 593.95,1012.96 "/>
<polygon fill="#442F27" points="576.36,1046.51 521.73,1024.85 532.46,1111.18 "/>
<polygon fill="#70544A" points="593.95,1012.96 572.72,964.24 521.73,1024.85 "/>
<polygon fill="#C7C2C5" points="532.46,1111.18 521.73,1024.85 440.78,1224.65 "/>
<polygon fill="#70544A" points="593.95,1012.96 521.73,1024.85 576.36,1046.51 "/>
<polygon fill="#575756" points="1023.96,926.74 1131.52,1043.94 1235.75,1223.65 1079.06,1025.89 "/>
<polygon fill="#575756" points="653.61,926.74 546.05,1043.94 438.04,1232.27 598.51,1025.89 "/>
<polygon fill="#575756" points="838.2,548.96 529.88,721.64 342.45,849.12 572.72,709.04 "/>
<polygon fill="#E62D85" points="838.2,548.96 488.6,674.64 340.82,848.06 502.61,695.39 "/>
<polygon id="XMLID_19_" fill="#ED87B1" points="840.2,546.96 1074.83,859.69 1341.36,851.36 "/>
<polygon id="XMLID_28_" fill="#ED87B1" points="840.2,546.96 337.84,851.36 604.37,859.69 "/>
<polygon fill="#E62D85" points="843.6,548.96 1193.2,674.64 1339.36,849.12 1179.19,695.39 "/>
<polygon fill="#ED87B1" points="510.59,807.67 604.37,859.69 337.84,851.36 "/>
<polygon fill="#F1A4C4" points="394.33,1057.86 337.84,851.28 604.37,859.61 "/>
<polygon fill="#F1A4C4" points="1281.26,1057.86 1337.75,851.28 1071.21,859.61 "/>
<polygon fill="#442F27" points="1051.79,839.69 1003.27,694.79 843.39,548.96 "/>
<polygon fill="#E74890" points="1171.39,748.13 1076.33,859.69 1342.87,851.36 "/>
</svg>
